<?xml version="1.0" encoding="UTF-8" standalone="no"?>
<svg
   width="300"
   height="320"
   viewBox="0 0 300 320"
   version="1.1"
   id="svg1"
   xmlns="http://www.w3.org/2000/svg"
   xmlns:svg="http://www.w3.org/2000/svg">
  <defs
     id="defs1" />
  <g
     id="layer3"
     transform="translate(-1.7312373e-4,-88.725187)">
    <path
       d="m 108.93164,150.24219 c -16.044348,34.46563 -15.309344,65.70766 -7.28906,88.39453 8.02028,22.68687 23.28817,36.90803 36.5625,37.10351 22.99338,0.33862 42.14017,-11.37307 54.39648,-29.27343 12.25631,-17.90037 17.6525,-41.98987 13.23438,-66.48438 l -0.98438,0.17774 c 4.37253,24.24172 -0.97698,48.07219 -13.07422,65.74023 -12.09723,17.66804 -30.91238,29.17334 -53.55859,28.83984 -12.56267,-0.185 -27.70225,-14.00246 -35.63281,-36.43554 -7.930566,-22.43309 -8.689917,-53.39514 7.25195,-87.64063 z"
       id="head" />
    <path
       d="m 154.78516,98.880859 c -12.35768,-0.919642 -23.15293,2.283881 -31.98633,8.324221 -17.66681,12.08068 -27.461631,35.3899 -26.550783,59.45898 l 0.05273,1.39453 0.845703,-1.11132 c 8.50764,-11.19853 14.40281,-17.67738 19.22657,-21.49219 4.82376,-3.81481 8.55129,-4.98573 12.91211,-5.61719 7.40613,-1.07243 16.70961,-0.59196 35.20117,-8.46094 -4.72076,3.59444 -8.59593,7.70435 -12.39649,11.20703 l -0.85937,0.79102 1.16601,0.0742 c 5.05999,0.32696 11.39789,-2.28705 17.34571,-4.78516 2.9739,-1.24905 5.84609,-2.47558 8.36914,-3.31054 0.5548,-0.18361 1.01503,-0.25953 1.5332,-0.4004 -0.79636,0.42386 -1.56098,0.85891 -2.0918,1.39258 -1.34906,1.35634 -1.86492,3.02899 -1.99414,4.76172 -0.25844,3.46547 0.87228,7.28999 0.0781,10.4082 l -0.33985,1.33594 1.11719,-0.80859 c 3.19821,-2.31107 6.00482,-5.55846 8.99805,-8.05664 2.87394,-2.39862 5.87509,-4.03877 9.54883,-3.69922 -1.32797,15.82928 2.14659,24.1526 6.00976,31.17578 3.91216,7.11224 8.11778,12.91464 8.2168,24.4082 l 0.97852,0.14063 c 4.61339,-15.20023 7.64455,-29.90398 6.25976,-43.5625 -1.38479,-13.65852 -7.21783,-26.26257 -20.23828,-37.12891 l -0.0176,-0.0156 -0.0195,-0.0117 C 181.06298,104.8441 167.14284,99.800502 154.78516,98.880859 Z m -0.0508,0.97461 c 12.14217,0.907741 25.86328,5.886531 40.83204,16.250001 12.82729,10.71331 18.50326,23.00991 19.86523,36.44336 1.28543,12.67852 -1.36392,26.39655 -5.51953,40.62109 -0.72879,-9.89028 -4.52194,-15.74566 -8.06641,-22.18945 -3.87688,-7.04811 -7.33115,-15.09234 -5.87695,-31.14453 l 0.043,-0.47461 -0.47266,-0.0645 c -4.25017,-0.58136 -7.68493,1.34907 -10.76758,3.92188 -2.75618,2.30034 -5.30561,5.0398 -7.99804,7.19336 0.37427,-3.13797 -0.42406,-6.45127 -0.2168,-9.23047 0.11851,-1.58909 0.55217,-2.97174 1.70508,-4.13086 1.1529,-1.15912 3.07444,-2.11609 6.24219,-2.68945 l -0.002,-0.98633 c -0.0526,-0.009 -0.12246,0.0118 -0.17578,0.004 v -0.002 c -0.003,5.6e-4 -0.005,0.001 -0.008,0.002 -1.80907,-0.26647 -4.01346,0.19539 -6.52149,1.02539 -2.58526,0.85555 -5.47141,2.09048 -8.4414,3.33789 -5.42037,2.27658 -11.08014,4.4637 -15.57617,4.61914 5.91027,-5.60726 11.70752,-12.31622 21.18945,-15.85352 0.0695,-0.0352 0.12556,-0.0564 0.19531,-0.0918 l -0.40039,-0.91407 c -0.0193,0.007 -0.0334,0.0183 -0.0527,0.0254 v -0.002 c -25.81683,13.10916 -36.65511,12.03131 -45.57032,13.32227 -4.4576,0.64547 -8.44429,1.91207 -13.38867,5.82226 -4.73773,3.74677 -10.51095,10.15125 -18.478513,20.53711 -0.467028,-23.26278 9.122793,-45.5736 26.089843,-57.17578 8.65676,-5.91955 19.2246,-9.083849 31.37109,-8.175781 z"
       id="hair" />
    <path
       d="m 94.996094,179.91797 0.839843,7.13867 c -0.111273,0.19634 -0.223797,0.36044 -0.285156,0.40234 -0.07565,0.0517 -0.08506,0.0505 -0.169922,0.0293 -0.169719,-0.0425 -0.583008,-0.36361 -1.005859,-0.86523 -0.845701,-1.00324 -1.756299,-2.56966 -2.902344,-3.28125 -0.286511,-0.1779 -0.606749,-0.30544 -0.957031,-0.31055 -0.350282,-0.005 -0.710359,0.12776 -1.009766,0.37305 -0.598813,0.49057 -1.033818,1.36198 -1.455078,2.79687 -0.84252,2.86979 -1.548492,8.073 -2.068359,17.13867 l -0.002,0.0352 0.002,0.0352 c 0.557164,6.75954 1.591434,12.46452 3.203125,16.14257 0.805845,1.83903 1.754252,3.19454 2.957031,3.88672 1.202779,0.69219 2.649375,0.60963 4.083984,-0.29687 l -0.535156,-0.84571 c -1.222919,0.77274 -2.151652,0.79283 -3.050781,0.2754 -0.899129,-0.51744 -1.778653,-1.68459 -2.539063,-3.41993 -1.518536,-3.46546 -2.563995,-9.10669 -3.117187,-15.79687 0.517892,-9.00212 1.234891,-14.17849 2.025391,-16.8711 0.396035,-1.34897 0.829131,-2.0575 1.130859,-2.30468 0.150864,-0.1236 0.248766,-0.15008 0.361328,-0.14844 0.112562,0.002 0.259945,0.0463 0.443359,0.16016 0.73366,0.45554 1.738384,1.97573 2.666016,3.07617 0.463816,0.55022 0.902892,1.0351 1.527344,1.1914 0.312226,0.0782 0.684539,0.0243 0.974609,-0.17382 0.290071,-0.19811 0.504003,-0.49771 0.691406,-0.89063 l 0.0625,-0.13086 -0.734375,-6.25 2.033204,0.16406 c -1.725484,6.37829 -0.241112,11.77265 4.091794,18.12891 l 0.13477,0.19727 28.58203,2.41601 0.16211,-0.26562 c 3.25824,-5.35369 4.78669,-11.27515 4.03711,-17.65625 l 13.49804,0.97656 c -0.73172,3.33828 -0.96375,10.16146 1.30665,16.97266 l 0.10742,0.31835 36.14453,2.41016 0.16211,-0.21484 c 4.06236,-5.37664 5.36429,-10.79206 5.57422,-16.15235 l 16.34375,1.30078 -2.12305,12.32032 1.06836,-0.95117 c 2.26252,-2.01625 4.49856,-4.39385 6.64453,-5.72657 1.07299,-0.66635 2.10785,-1.06507 3.09961,-1.08008 0.98293,-0.0149 1.95119,0.33084 2.98633,1.25782 3.21218,4.0129 3.65336,7.61225 3.0332,11.18945 -0.62221,3.58906 -2.36683,7.135 -3.54101,10.81445 -1.8466,5.1671 -3.53379,8.58543 -5.07813,10.76563 -1.54617,2.18278 -2.92301,3.11148 -4.19531,3.42187 -1.27231,0.3104 -2.51238,0.0122 -3.82031,-0.46679 -1.30794,-0.47904 -2.65363,-1.14013 -4.10352,-1.42383 l -0.19336,0.98242 c 1.27192,0.24888 2.5801,0.87603 3.95313,1.37891 1.37302,0.50288 2.84159,0.88076 4.40234,0.5 1.56075,-0.38076 3.14151,-1.51061 4.77344,-3.81446 1.63192,-2.30384 3.34206,-5.79632 5.20898,-11.02343 l 0.002,-0.008 0.004,-0.008 c 1.14267,-3.58069 2.91584,-7.16279 3.57227,-10.94922 0.65642,-3.78643 0.13661,-7.79883 -3.26368,-12.02539 l -0.0254,-0.0312 -0.0293,-0.0273 c -1.19205,-1.07842 -2.45326,-1.55205 -3.69922,-1.53321 -1.24596,0.0188 -2.44855,0.50714 -3.61328,1.23047 -1.95448,1.21379 -3.8398,3.0855 -5.70508,4.82813 l 1.8164,-10.5332 -17.45507,-1.38672 0.004,-0.20118 -28.28125,-2.04687 -14.85547,-1.17969 -0.0273,0.10352 -33.64648,-2.4336 z m 4.138672,1.47461 15.998044,1.15625 19.04688,1.53906 c 0.71888,6.05926 -0.70199,11.64817 -3.76172,16.78125 l -27.44727,-2.32031 c -4.152592,-6.15431 -5.49419,-11.09789 -3.835934,-17.15625 z m 50.537104,3.65429 14.00586,1.01368 27.29297,2.16992 c -0.19507,5.16013 -1.42476,10.26751 -5.23828,15.41015 l -34.88086,-2.32617 c -2.11597,-6.58948 -1.84782,-13.32505 -1.17969,-16.26758 z"
       id="ear-glasses" />
    <path
       d="m 208.55664,242.11328 c -5.74224,0.37531 -10.78989,2.05951 -13.87305,5.96484 -3.01773,3.82246 -4.10913,7.35902 -4,10.5625 0.10914,3.20349 1.40354,6.0432 3.03711,8.53125 1.63357,2.48806 3.61293,4.63898 5.13672,6.46875 1.5238,1.82978 2.50796,3.35754 2.4336,4.32422 -0.008,0.10385 -0.20864,0.61848 -0.63868,1.26563 -0.43003,0.64714 -1.06542,1.47123 -1.87109,2.4375 -1.61134,1.93254 -3.90604,4.43188 -6.65039,7.28711 -5.4887,5.71046 -12.77839,12.85374 -20.05664,19.83594 -14.44047,13.85306 -28.6054,26.8623 -28.83399,27.07226 -0.26088,-0.1045 -4.30065,-1.72206 -9.17382,-3.82422 -5.02773,-2.16882 -10.67783,-4.75788 -12.95118,-6.27344 -0.97933,-0.65288 -2.37707,-2.78302 -3.66992,-5.72851 -1.29284,-2.94549 -2.54624,-6.711 -3.52734,-10.70899 -1.9622,-7.99596 -2.79825,-16.95469 -0.9043,-22.06835 2.02404,-5.4649 2.00873,-12.53439 1.01172,-18.66602 -0.49851,-3.06581 -1.24533,-5.89491 -2.125,-8.17578 -0.87967,-2.28087 -1.86212,-4.01391 -2.99219,-4.91797 -0.64597,-0.51678 -1.53962,-0.63308 -2.55468,-0.50391 -1.01507,0.12918 -2.18699,0.50877 -3.48243,1.09961 -2.59086,1.18169 -5.678746,3.21439 -8.816403,5.87891 -6.275313,5.32904 -12.743925,13.17777 -15.550781,21.79883 -1.347541,4.13887 -3.567829,6.36447 -6.513672,7.7539 -2.945843,1.38944 -6.65133,1.90009 -10.84375,2.41797 -8.384838,1.03578 -18.716569,2.1452 -28.701172,10.93164 -9.987084,8.78864 -16.907554,22.96832 -21.511718,35.2461 -2.3020826,6.13888 -4.0206537,11.80293 -5.2382815,16.08007 -0.6088139,2.13858 -1.091849,3.9309 -1.4589844,5.25782 -0.3671354,1.32692 -0.6595841,2.25667 -0.734375,2.40625 -0.1293222,0.25864 -0.18259,0.54239 -0.2421875,0.93359 -0.059598,0.39121 -0.10931,0.87371 -0.1503906,1.44336 -0.082161,1.1393 -0.1323047,2.62185 -0.1601562,4.33008 -0.055703,3.41645 -0.019407,7.73824 0.054687,11.98633 0.1481892,8.49618 0.4453125,16.69336 0.4453125,16.69336 l 0.9999999,-0.0371 c 0,0 -0.297333,-8.18968 -0.4453125,-16.67383 -0.07399,-4.24208 -0.1100477,-8.5577 -0.054687,-11.95313 0.02768,-1.69771 0.078397,-3.16679 0.1582031,-4.27343 0.039903,-0.55333 0.087424,-1.01602 0.140625,-1.36524 0.053201,-0.34922 0.1296754,-0.59919 0.1484375,-0.63672 0.2213777,-0.44275 0.4340757,-1.25351 0.8027343,-2.58593 0.3686587,-1.33243 0.8522728,-3.12077 1.4589844,-5.25196 1.2134233,-4.26238 2.9243588,-9.8992 5.212891,-16.00195 4.577063,-12.2055 11.476882,-26.26106 21.234375,-34.84766 9.759975,-8.58877 19.76601,-9.65204 28.164062,-10.68945 4.199027,-0.5187 7.996189,-1.01999 11.146485,-2.50586 3.150295,-1.48587 5.620409,-3.99832 7.037109,-8.34961 2.721625,-8.35928 9.08623,-16.10944 15.25,-21.34375 3.081885,-2.61716 6.115305,-4.60646 8.583985,-5.73242 1.23434,-0.56298 2.32765,-0.90961 3.19141,-1.01953 0.86375,-0.10992 1.46343,0.0219 1.80468,0.29492 0.84439,0.67551 1.83562,2.29741 2.6836,4.49609 0.84797,2.19869 1.58159,4.97092 2.07031,7.97657 0.97744,6.01128 0.96394,12.96102 -0.96094,18.1582 -2.05497,5.54841 -1.11562,14.55843 0.8711,22.6543 0.99335,4.04793 2.25871,7.85814 3.58203,10.87304 1.32331,3.01491 2.64123,5.23153 4.03125,6.15821 2.46535,1.64356 8.06736,4.18634 13.10937,6.36132 5.04201,2.17499 9.49024,3.95313 9.49024,3.95313 l 0.29296,0.11719 0.23047,-0.21289 c 0,0 14.5153,-13.3305 29.08203,-27.30469 7.28337,-6.9871 14.57938,-14.13423 20.08594,-19.86328 2.75328,-2.86453 5.05847,-5.37438 6.69727,-7.33985 0.8194,-0.98273 1.47187,-1.82762 1.93554,-2.52539 0.46368,-0.69776 0.76332,-1.20238 0.80469,-1.74023 0.12309,-1.60011 -1.11511,-3.18298 -2.66406,-5.04297 -1.54895,-1.85999 -3.49343,-3.97822 -5.06836,-6.37695 -1.57492,-2.39874 -2.7724,-5.06323 -2.87305,-8.01758 -0.10065,-2.95435 0.87952,-6.22772 3.78516,-9.9082 2.84022,-3.59761 7.56613,-5.22083 13.15234,-5.58594 5.58621,-0.36511 11.99186,0.5364 18.03516,1.91211 11.96721,2.72424 22.37498,7.2344 22.58203,7.32422 0.0323,0.0377 0.245,0.27185 0.63086,1.11523 0.41351,0.90382 0.94519,2.38347 1.38281,4.64453 0.87525,4.52212 1.37351,12.17168 -0.20117,24.57227 -0.81064,6.38377 1.74088,11.83086 5.96484,16.57422 4.22397,4.74335 10.12147,8.83025 16.13086,12.63867 6.00939,3.80842 12.13578,7.33663 16.80274,10.89648 4.66696,3.55986 7.8117,7.13034 8.08984,10.93164 1.17874,16.10931 0.78907,65.11524 0.78906,65.11524 l 1,0.01 c 0,0 0.39961,-48.92742 -0.79101,-65.19922 -0.31419,-4.29397 -3.73369,-8.03011 -8.48242,-11.65234 -4.74874,-3.62223 -10.88761,-7.15207 -16.87305,-10.94531 -5.98544,-3.79324 -11.81219,-7.8503 -15.91797,-12.46094 -4.10578,-4.61064 -6.48963,-9.72789 -5.7207,-15.7832 1.58445,-12.47758 1.09317,-20.22761 0.1914,-24.88672 -0.45088,-2.32956 -1.00476,-3.88684 -1.45507,-4.8711 -0.45032,-0.98425 -0.83008,-1.43359 -0.83008,-1.43359 l -0.0742,-0.0859 -0.10352,-0.0449 c 0,0 -10.6953,-4.65653 -22.89453,-7.43359 -6.09961,-1.38853 -12.57807,-2.31086 -18.32031,-1.93555 z"
       id="body" />
    <path
       d="m 71.171875,292.10547 -0.972656,0.22851 c 2.98591,12.73989 8.844404,19.36688 13.912109,23.40625 2.533852,2.01969 4.869253,3.40007 6.515625,4.57227 0.823186,0.5861 1.471086,1.12222 1.884766,1.62695 0.41368,0.50474 0.595163,0.9497 0.578125,1.46094 -0.0063,0.19053 -0.134308,1.60796 -0.347657,3.76172 -0.213348,2.15376 -0.5129,5.10798 -0.873046,8.59375 -0.720293,6.97154 -1.677068,16.06726 -2.640625,25.12891 -0.963558,9.06164 -1.935034,18.08994 -2.683594,24.92773 -0.37428,3.41889 -0.693217,6.29044 -0.927735,8.34375 -0.117258,1.02665 -0.213773,1.84901 -0.285156,2.43164 -0.03569,0.29132 -0.06339,0.5221 -0.08594,0.6875 -0.02255,0.1654 -0.04963,0.30201 -0.03906,0.25977 l -0.167969,0.66796 6.652344,-0.4746 0.02734,-0.43555 c 1.69534,-26.80488 3.480109,-53.36158 8.140625,-71.11133 9.374729,4.90096 5.612629,6.88335 35.062499,14.69922 8.1e-4,2.1e-4 10e-4,-2.1e-4 0.002,0 0.21095,0.25796 0.40212,0.54222 0.73242,0.66992 0.48305,0.18676 1.06269,0.27079 1.74219,0.29297 1.35899,0.0444 3.1214,-0.17186 5.17187,-0.56055 4.10095,-0.77738 9.33519,-2.26205 14.44531,-3.88476 5.11013,-1.62272 10.09175,-3.38156 13.66993,-4.70703 1.54708,-0.57309 2.67331,-1.01353 3.59375,-1.37891 -0.0902,0.2321 -0.19691,0.40722 -0.27735,0.68164 -0.35871,1.22374 -0.63603,2.86971 -0.85937,4.8125 -0.44668,3.88557 -0.66922,8.95003 -0.76953,13.98633 -0.1999,10.03625 0.0878,19.88168 0.0898,19.95312 -0.0177,0.0677 -1.76963,6.78455 -3.19727,13.57813 -0.7174,3.41386 -1.34958,6.82833 -1.63085,9.41601 -0.14064,1.29384 -0.19757,2.37571 -0.1211,3.1875 0.0382,0.4059 0.10378,0.74467 0.25195,1.04102 0.14818,0.29635 0.4754,0.58203 0.85352,0.58203 2.85948,0 4.56641,-0.8418 4.56641,-0.8418 l 0.25,-0.125 0.0254,-0.27929 c 0.58141,-6.58992 2.17797,-15.56865 5.9082,-29.53125 l 0.0273,-0.10157 -0.0156,-0.10546 c -2.19364,-14.04249 0.0549,-27.00054 1.91601,-35.09961 l 77.93946,-31.49024 -0.375,-0.92773 -78.42969,31.68945 -0.0586,0.25391 c -1.87785,8.11427 -4.20239,21.28904 -1.99024,35.60937 -3.67003,13.75167 -5.2628,22.66353 -5.86914,29.29102 -0.27297,0.12498 -1.50876,0.6582 -3.89453,0.6582 0.0326,0 0.0924,0.0735 0.041,-0.0293 -0.0514,-0.10277 -0.11845,-0.34834 -0.15039,-0.6875 -0.0639,-0.6783 -0.0179,-1.72571 0.11914,-2.98632 0.27404,-2.52123 0.90115,-5.92035 1.61523,-9.31836 1.42815,-6.79603 3.20313,-13.59961 3.20313,-13.59961 l 0.0176,-0.0684 -0.002,-0.0723 c 0,0 -0.28982,-9.93633 -0.0898,-19.97656 0.1,-5.02012 0.32203,-10.06778 0.76172,-13.89258 0.21984,-1.9124 0.49694,-3.52137 0.82617,-4.64453 0.16461,-0.56158 0.34524,-1.00113 0.51562,-1.28125 0.12531,-0.20601 0.19657,-0.234 0.26563,-0.27734 0.0245,-0.0111 0.0838,-0.0347 0.10547,-0.0449 0.0515,-0.0242 0.0955,-0.0441 0.13671,-0.0664 0.0412,-0.0223 0.0619,-0.0193 0.16016,-0.11328 0.0246,-0.0235 0.10078,-0.13134 0.10156,-0.13282 7.8e-4,-10e-4 0.0122,-0.44625 0.0117,-0.44726 -4.7e-4,-0.001 -0.23431,-0.24631 -0.30859,-0.26953 -0.0743,-0.0232 -0.11356,-0.0227 -0.14453,-0.0234 -0.12388,-0.003 -0.14223,0.0127 -0.18946,0.0234 -0.0799,0.0182 -0.10812,0.1181 -0.17968,0.15039 0.007,-0.009 0.0137,-0.0197 0.0176,-0.0234 0.0821,-0.0785 0.0685,-0.0524 0.0547,-0.0449 -0.0138,0.007 -0.0448,0.0236 -0.0859,0.043 -0.16455,0.0774 -0.49565,0.21956 -0.95312,0.40429 -0.91494,0.36947 -2.34839,0.9198 -4.13086,1.58008 -3.56494,1.32058 -8.53493,3.07702 -13.625,4.69336 -5.09007,1.61635 -10.30363,3.09258 -14.32812,3.85547 -2.01225,0.38145 -3.73226,0.58288 -4.95508,0.54297 -0.61141,-0.02 -1.09672,-0.10387 -1.41407,-0.22656 -0.31734,-0.1227 -0.44052,-0.2535 -0.49414,-0.39649 l -0.0918,-0.24023 -0.24805,-0.0664 c -30.14898,-8.00124 -24.89712,-9.68249 -35.445316,-14.9707 l -0.546875,-0.27344 -0.160156,0.5918 c -4.801654,17.8312 -6.569784,44.57672 -8.275391,71.53125 l -4.480469,0.32031 c 0.01667,-0.12967 0.03197,-0.23482 0.05273,-0.4043 0.072,-0.58768 0.167731,-1.41133 0.285156,-2.43945 0.234851,-2.05623 0.553361,-4.92791 0.927734,-8.34766 0.748747,-6.83948 1.719955,-15.86923 2.683594,-24.93164 0.963639,-9.06241 1.920169,-18.15774 2.640625,-25.13086 0.360228,-3.48655 0.661399,-6.44329 0.875,-8.5996 0.213602,-2.15632 0.33893,-3.44716 0.351563,-3.82618 0.02621,-0.78653 -0.290271,-1.50126 -0.804688,-2.1289 -0.514417,-0.62765 -1.224961,-1.1992 -2.078125,-1.80664 -1.706327,-1.21489 -3.999377,-2.56766 -6.472656,-4.53907 -4.946559,-3.9428 -10.625038,-10.32033 -13.5625,-22.85351 z"
       id="drawstrings" />
    <path
       d="m 217.58008,254.8457 c -9.05734,-0.14417 -18.38172,0.88686 -26.61524,3.73047 l 0.32618,0.94531 c 16.04527,-5.54156 36.54614,-4.07017 50.69726,-0.45117 1.8381,14.11755 -5.69263,26.95593 -22.13281,39.52344 -16.54506,12.64768 -42.06099,24.93199 -75.7207,37.71094 -9.67673,-4.64803 -23.54091,-7.15419 -35.73633,-13.03516 -12.228968,-5.89714 -22.725523,-15.10791 -25.718753,-33.28516 8.365868,-10.47076 18.736683,-21.27564 30.074223,-26.5332 l -0.41993,-0.90625 c -11.66518,5.4095 -22.155843,16.41559 -30.587886,26.99414 l -0.136719,0.17188 0.03516,0.21875 c 2.994295,18.64662 13.873067,28.23783 26.320305,34.24023 12.44725,6.00241 26.48473,8.51897 35.95118,13.12305 l 0.19531,0.0937 0.20117,-0.0762 c 33.79427,-12.82038 59.42895,-25.13936 76.15039,-37.92188 16.72144,-12.78251 24.56578,-26.12225 22.49609,-40.80469 l -0.0469,-0.33007 -0.32227,-0.084 c -7.16199,-1.86071 -15.95243,-3.18005 -25.00976,-3.32422 z"
       id="hood" />
  </g>
</svg>
